<mxfile host="app.diagrams.net" modified="2024-05-31T07:23:13.709Z" agent="Mozilla/5.0 (Macintosh; Intel Mac OS X 10_15_7) AppleWebKit/537.36 (KHTML, like Gecko) Chrome/124.0.0.0 Safari/537.36" etag="I2fYFdcnNJAgd0RpSFMJ" version="24.4.10" type="github">
  <diagram name="第 1 页" id="h08WxK1OJK9P_dThIWVY">
    <mxGraphModel dx="1434" dy="673" grid="1" gridSize="10" guides="1" tooltips="1" connect="1" arrows="1" fold="1" page="1" pageScale="1" pageWidth="827" pageHeight="1169" math="0" shadow="0">
      <root>
        <mxCell id="0" />
        <mxCell id="1" parent="0" />
        <mxCell id="wpOWByaT0sS5YUf1Cxvb-10" value="Multi Thread" style="rounded=0;whiteSpace=wrap;html=1;align=right;verticalAlign=top;fillColor=#d5e8d4;strokeColor=#82b366;dashed=1;dashPattern=12 12;" vertex="1" parent="1">
          <mxGeometry x="250" y="170" width="470" height="120" as="geometry" />
        </mxCell>
        <mxCell id="EFIGJ6aBogPd2Uy-ziXT-7" style="edgeStyle=orthogonalEdgeStyle;rounded=0;orthogonalLoop=1;jettySize=auto;html=1;exitX=1;exitY=0.5;exitDx=0;exitDy=0;entryX=0;entryY=0.5;entryDx=0;entryDy=0;" parent="1" source="EFIGJ6aBogPd2Uy-ziXT-8" target="EFIGJ6aBogPd2Uy-ziXT-13" edge="1">
          <mxGeometry relative="1" as="geometry" />
        </mxCell>
        <mxCell id="EFIGJ6aBogPd2Uy-ziXT-8" value="Keyword" style="rounded=1;whiteSpace=wrap;html=1;" parent="1" vertex="1">
          <mxGeometry x="30" y="239" width="90" height="30" as="geometry" />
        </mxCell>
        <mxCell id="EFIGJ6aBogPd2Uy-ziXT-10" style="edgeStyle=orthogonalEdgeStyle;rounded=0;orthogonalLoop=1;jettySize=auto;html=1;exitX=1;exitY=0.5;exitDx=0;exitDy=0;entryX=0;entryY=0.5;entryDx=0;entryDy=0;" parent="1" source="EFIGJ6aBogPd2Uy-ziXT-13" target="EFIGJ6aBogPd2Uy-ziXT-17" edge="1">
          <mxGeometry relative="1" as="geometry" />
        </mxCell>
        <mxCell id="wpOWByaT0sS5YUf1Cxvb-4" style="edgeStyle=orthogonalEdgeStyle;rounded=0;orthogonalLoop=1;jettySize=auto;html=1;exitX=0.5;exitY=0;exitDx=0;exitDy=0;entryX=0;entryY=0.5;entryDx=0;entryDy=0;" edge="1" parent="1" source="EFIGJ6aBogPd2Uy-ziXT-13" target="wpOWByaT0sS5YUf1Cxvb-1">
          <mxGeometry relative="1" as="geometry" />
        </mxCell>
        <mxCell id="EFIGJ6aBogPd2Uy-ziXT-13" value="Filter Product Quantity" style="rounded=1;whiteSpace=wrap;html=1;" parent="1" vertex="1">
          <mxGeometry x="150" y="239" width="90" height="30" as="geometry" />
        </mxCell>
        <mxCell id="EFIGJ6aBogPd2Uy-ziXT-16" style="edgeStyle=orthogonalEdgeStyle;rounded=0;orthogonalLoop=1;jettySize=auto;html=1;exitX=1;exitY=0.5;exitDx=0;exitDy=0;entryX=0;entryY=0.5;entryDx=0;entryDy=0;" parent="1" source="EFIGJ6aBogPd2Uy-ziXT-17" target="EFIGJ6aBogPd2Uy-ziXT-21" edge="1">
          <mxGeometry relative="1" as="geometry" />
        </mxCell>
        <mxCell id="wpOWByaT0sS5YUf1Cxvb-7" style="edgeStyle=orthogonalEdgeStyle;rounded=0;orthogonalLoop=1;jettySize=auto;html=1;exitX=0.5;exitY=1;exitDx=0;exitDy=0;entryX=0.5;entryY=0;entryDx=0;entryDy=0;" edge="1" parent="1" source="EFIGJ6aBogPd2Uy-ziXT-17" target="wpOWByaT0sS5YUf1Cxvb-3">
          <mxGeometry relative="1" as="geometry" />
        </mxCell>
        <mxCell id="EFIGJ6aBogPd2Uy-ziXT-17" value="Query CPV" style="rounded=1;whiteSpace=wrap;html=1;" parent="1" vertex="1">
          <mxGeometry x="270" y="239" width="90" height="30" as="geometry" />
        </mxCell>
        <mxCell id="EFIGJ6aBogPd2Uy-ziXT-18" style="edgeStyle=orthogonalEdgeStyle;rounded=0;orthogonalLoop=1;jettySize=auto;html=1;exitX=1;exitY=0.5;exitDx=0;exitDy=0;entryX=0.5;entryY=0;entryDx=0;entryDy=0;" parent="1" source="EFIGJ6aBogPd2Uy-ziXT-19" target="EFIGJ6aBogPd2Uy-ziXT-21" edge="1">
          <mxGeometry relative="1" as="geometry" />
        </mxCell>
        <mxCell id="EFIGJ6aBogPd2Uy-ziXT-19" value="Generate Desc" style="rounded=1;whiteSpace=wrap;html=1;" parent="1" vertex="1">
          <mxGeometry x="390" y="189" width="90" height="30" as="geometry" />
        </mxCell>
        <mxCell id="EFIGJ6aBogPd2Uy-ziXT-20" style="edgeStyle=orthogonalEdgeStyle;rounded=0;orthogonalLoop=1;jettySize=auto;html=1;exitX=1;exitY=0.5;exitDx=0;exitDy=0;entryX=0;entryY=0.5;entryDx=0;entryDy=0;" parent="1" source="EFIGJ6aBogPd2Uy-ziXT-21" target="EFIGJ6aBogPd2Uy-ziXT-22" edge="1">
          <mxGeometry relative="1" as="geometry" />
        </mxCell>
        <mxCell id="EFIGJ6aBogPd2Uy-ziXT-21" value="Insert Or Update DB" style="rounded=1;whiteSpace=wrap;html=1;" parent="1" vertex="1">
          <mxGeometry x="480" y="239" width="90" height="30" as="geometry" />
        </mxCell>
        <mxCell id="EFIGJ6aBogPd2Uy-ziXT-22" value="Refresh Cache" style="rounded=1;whiteSpace=wrap;html=1;" parent="1" vertex="1">
          <mxGeometry x="620" y="239" width="90" height="30" as="geometry" />
        </mxCell>
        <mxCell id="wpOWByaT0sS5YUf1Cxvb-5" style="edgeStyle=orthogonalEdgeStyle;rounded=0;orthogonalLoop=1;jettySize=auto;html=1;exitX=1;exitY=0.5;exitDx=0;exitDy=0;entryX=0;entryY=0.5;entryDx=0;entryDy=0;" edge="1" parent="1" source="wpOWByaT0sS5YUf1Cxvb-1" target="EFIGJ6aBogPd2Uy-ziXT-19">
          <mxGeometry relative="1" as="geometry" />
        </mxCell>
        <mxCell id="wpOWByaT0sS5YUf1Cxvb-6" style="edgeStyle=orthogonalEdgeStyle;rounded=0;orthogonalLoop=1;jettySize=auto;html=1;exitX=0.5;exitY=0;exitDx=0;exitDy=0;entryX=0.5;entryY=1;entryDx=0;entryDy=0;" edge="1" parent="1" source="wpOWByaT0sS5YUf1Cxvb-1" target="wpOWByaT0sS5YUf1Cxvb-2">
          <mxGeometry relative="1" as="geometry" />
        </mxCell>
        <mxCell id="wpOWByaT0sS5YUf1Cxvb-1" value="Query&amp;nbsp;&lt;div&gt;Product List&lt;/div&gt;" style="rounded=1;whiteSpace=wrap;html=1;" vertex="1" parent="1">
          <mxGeometry x="270" y="189" width="90" height="30" as="geometry" />
        </mxCell>
        <mxCell id="wpOWByaT0sS5YUf1Cxvb-2" value="Magellan Platform" style="ellipse;whiteSpace=wrap;html=1;" vertex="1" parent="1">
          <mxGeometry x="255" y="50" width="120" height="80" as="geometry" />
        </mxCell>
        <mxCell id="wpOWByaT0sS5YUf1Cxvb-3" value="CPV Platform" style="ellipse;whiteSpace=wrap;html=1;" vertex="1" parent="1">
          <mxGeometry x="255" y="310" width="120" height="80" as="geometry" />
        </mxCell>
      </root>
    </mxGraphModel>
  </diagram>
</mxfile>
